<?xml version="1.0" encoding="UTF-8"?>
<!DOCTYPE svg PUBLIC "-//W3C//DTD SVG 1.1//EN" "http://www.w3.org/Graphics/SVG/1.1/DTD/svg11.dtd">
<svg xmlns="http://www.w3.org/2000/svg" version="1.1" width="512px" height="512px" style="shape-rendering:geometricPrecision; text-rendering:geometricPrecision; image-rendering:optimizeQuality; fill-rule:evenodd; clip-rule:evenodd" xmlns:xlink="http://www.w3.org/1999/xlink">
<g><path style="opacity:0.989" fill="#4e99d1" d="M 233.5,-0.5 C 240.833,-0.5 248.167,-0.5 255.5,-0.5C 255.5,10.1667 255.5,20.8333 255.5,31.5C 242.574,49.0998 229.24,66.4331 215.5,83.5C 196.658,73.2452 177.658,63.2452 158.5,53.5C 153.785,74.4067 149.452,95.4067 145.5,116.5C 142.667,116.833 139.833,117.167 137,117.5C 118.17,116.677 99.337,116.011 80.5,115.5C 85.5168,136.233 90.8501,156.9 96.5,177.5C 95.8113,179.353 94.478,180.519 92.5,181C 73.7623,188.846 55.4289,197.346 37.5,206.5C 51.543,222.541 65.2097,238.874 78.5,255.5C 65.0084,272.157 51.3417,288.657 37.5,305C 57.2524,314.14 76.919,323.474 96.5,333C 90.6148,353.708 85.2814,374.541 80.5,395.5C 102.163,394.574 123.829,394.074 145.5,394C 149.634,415.17 153.968,436.337 158.5,457.5C 177.745,447.628 196.912,437.628 216,427.5C 229.414,444.734 242.581,462.067 255.5,479.5C 255.5,490.167 255.5,500.833 255.5,511.5C 248.167,511.5 240.833,511.5 233.5,511.5C 133.195,499.018 61.6947,447.018 19,355.5C 8.70332,330.313 2.20332,304.313 -0.5,277.5C -0.5,262.833 -0.5,248.167 -0.5,233.5C 11.9821,133.195 63.9821,61.6947 155.5,19C 180.687,8.70332 206.687,2.20332 233.5,-0.5 Z"/></g>
<g><path style="opacity:0.994" fill="#3f4347" d="M 255.5,-0.5 C 262.833,-0.5 270.167,-0.5 277.5,-0.5C 377.805,11.9821 449.305,63.9821 492,155.5C 502.297,180.687 508.797,206.687 511.5,233.5C 511.5,248.167 511.5,262.833 511.5,277.5C 499.018,377.805 447.018,449.305 355.5,492C 330.313,502.297 304.313,508.797 277.5,511.5C 270.167,511.5 262.833,511.5 255.5,511.5C 255.5,500.833 255.5,490.167 255.5,479.5C 255.5,446.167 255.5,412.833 255.5,379.5C 308.97,377.027 347.137,351.694 370,303.5C 389.39,249.899 378.89,203.065 338.5,163C 314.678,142.557 287.011,132.057 255.5,131.5C 255.5,98.1667 255.5,64.8333 255.5,31.5C 255.5,20.8333 255.5,10.1667 255.5,-0.5 Z"/></g>
<g><path style="opacity:1" fill="#f2c333" d="M 255.5,31.5 C 255.5,64.8333 255.5,98.1667 255.5,131.5C 201.009,133.984 162.509,159.984 140,209.5C 123.57,257.429 131.57,300.762 164,339.5C 188.881,365.52 219.381,378.853 255.5,379.5C 255.5,412.833 255.5,446.167 255.5,479.5C 242.581,462.067 229.414,444.734 216,427.5C 196.912,437.628 177.745,447.628 158.5,457.5C 153.968,436.337 149.634,415.17 145.5,394C 123.829,394.074 102.163,394.574 80.5,395.5C 85.2814,374.541 90.6148,353.708 96.5,333C 76.919,323.474 57.2524,314.14 37.5,305C 51.3417,288.657 65.0084,272.157 78.5,255.5C 65.2097,238.874 51.543,222.541 37.5,206.5C 55.4289,197.346 73.7623,188.846 92.5,181C 94.478,180.519 95.8113,179.353 96.5,177.5C 90.8501,156.9 85.5168,136.233 80.5,115.5C 99.337,116.011 118.17,116.677 137,117.5C 139.833,117.167 142.667,116.833 145.5,116.5C 149.452,95.4067 153.785,74.4067 158.5,53.5C 177.658,63.2452 196.658,73.2452 215.5,83.5C 229.24,66.4331 242.574,49.0998 255.5,31.5 Z"/></g>
<g><path style="opacity:1" fill="#fed73a" d="M 255.5,131.5 C 255.5,214.167 255.5,296.833 255.5,379.5C 219.381,378.853 188.881,365.52 164,339.5C 131.57,300.762 123.57,257.429 140,209.5C 162.509,159.984 201.009,133.984 255.5,131.5 Z"/></g>
<g><path style="opacity:1" fill="#fefefe" d="M 255.5,131.5 C 287.011,132.057 314.678,142.557 338.5,163C 378.89,203.065 389.39,249.899 370,303.5C 347.137,351.694 308.97,377.027 255.5,379.5C 255.5,296.833 255.5,214.167 255.5,131.5 Z"/></g>
<g><path style="opacity:1" fill="#dde3e9" d="M 297.5,182.5 C 307.679,181.172 314.846,185.172 319,194.5C 320.833,211.333 313.333,218.833 296.5,217C 286.262,211.694 282.762,203.527 286,192.5C 288.818,187.839 292.651,184.505 297.5,182.5 Z"/></g>
<g><path style="opacity:1" fill="#dde3e9" d="M 340.5,257.5 C 353.831,257.985 358.998,264.652 356,277.5C 349.662,285.459 342.329,286.459 334,280.5C 327.971,270.549 330.138,262.882 340.5,257.5 Z"/></g>
<g><path style="opacity:1" fill="#dde3e9" d="M 281.5,284.5 C 299.977,284.143 308.811,293.143 308,311.5C 303.705,324.233 294.872,329.733 281.5,328C 266.637,322.067 261.804,311.567 267,296.5C 270.541,290.78 275.374,286.78 281.5,284.5 Z"/></g>
</svg>
